<svg width="256" height="256" viewBox="0 0 256 256" xmlns="http://www.w3.org/2000/svg"><mask id="satori_om-id"><rect x="0" y="0" width="256" height="256" fill="#fff"/></mask><path x="0" y="0" width="256" height="256" fill="#1d4ed8" d="M32,0 h192 a32,32 0 0 1 32,32 v192 a32,32 0 0 1 -32,32 h-192 a32,32 0 0 1 -32,-32 v-192 a32,32 0 0 1 32,-32"/><g  ><path fill="#ffffff" d="M73.5 174L54.4 174L54.4 80.9L115.7 80.9L115.7 96.7L73.5 96.7L73.5 122.7L111.6 122.7L111.6 138.3L73.5 138.3L73.5 174ZM157.2 174L157.2 174L133.1 174L133.1 157.6L156.3 157.6Q165.3 157.6 171.3 154.4Q177.4 151.2 180.5 144.5Q183.6 137.8 183.6 127.4L183.6 127.4Q183.6 117 180.5 110.3Q177.4 103.7 171.3 100.5Q165.3 97.3 156.4 97.3L156.4 97.3L132.6 97.3L132.6 80.9L157.5 80.9Q171.5 80.9 181.6 86.5Q191.7 92.1 197.1 102.5Q202.6 112.9 202.6 127.4L202.6 127.4Q202.6 141.9 197.1 152.4Q191.7 162.8 181.5 168.4Q171.4 174 157.2 174ZM124.4 80.9L143.5 80.9L143.5 174L124.4 174L124.4 80.9Z "/></g></svg>